<?xml version="1.0" encoding="utf-8"?>
<!-- Generator: Adobe Illustrator 22.0.0, SVG Export Plug-In . SVG Version: 6.00 Build 0)  -->
<svg version="1.1" id="Layer_1" xmlns="http://www.w3.org/2000/svg" xmlns:xlink="http://www.w3.org/1999/xlink" x="0px" y="0px"
	 viewBox="0 0 2210.5 702" style="enable-background:new 0 0 2210.5 702;" xml:space="preserve">
<style type="text/css">
	.st0{fill:#000000;}
</style>
<path class="st0" d="M382.9,394.9c37.5,13.1,74.8,26.2,112.6,38.2c-23.4-80.2-40.2-161.7-59.1-243c-2.2,1.2-2.5,3.6-3.4,5.5
	C373.8,321.3,314.7,447,254.7,572.2c-7.4,15.4-15.3,30.6-22.4,46.2c-15.8,35-43.4,57.5-77.5,72.9c-23.3,10.5-48.1,11-73,10.6
	c-11.2-0.2-22.2-2-33-5.1C20.1,688.3,5.5,668,1,639.5c-4.4-27.9,6.7-50.8,25.8-69.8c29.1-29,63.5-48.5,105-52.7
	c29.6-3,56.9,3.8,80.8,22.2c3.3,2.6,4.1,2,5.8-1.4C304.8,360.7,391.4,183.7,478,6.7c0.9-1.9,1.9-3.8,3.4-6.7
	c2.2,12,3.9,22.7,6.1,33.3c10.8,51,25.8,100.8,40.9,150.6c19.7,64.7,39.8,129.4,62.9,193c20.8,57.4,44.6,113.7,76.6,166
	c19.7,32.2,44.7,59.6,75,82.2c1.2,0.9,2.3,1.8,3.1,3.7c-8.9-1.3-17.9-2.3-26.8-3.8c-81.1-14-151.6-50.5-215.4-101.2
	c-45-35.8-84.5-76.9-118.3-123.4c-0.9-1.2-1.7-2.4-2.5-3.7C382.9,396.5,383,396.1,382.9,394.9z"/>
<path class="st0" d="M1507.6,277.1c8.9-9.6,18-17.8,29.7-22.5c32.6-13,72.1,0.8,75.6,46.5c2.3,30.6,0.5,61.3,1.1,91.9
	c0.1,2.8-1.1,3.5-3.5,3.2c-4.8-0.4-11,2.1-13.9-1.1c-2.3-2.4-0.8-8.5-0.8-13c-0.3-25.1,0.6-50.3-0.8-75.4c-0.2-4.3-0.8-8.6-1.9-12.8
	c-4.8-18.1-17.6-27.7-36.2-27c-24.6,0.8-45.6,20.6-47.9,45.2c-2.4,25.9-1.1,51.9-1.2,77.9c0,4.9-0.9,6.6-6.2,6.4
	c-12.4-0.4-12.4-0.1-12.4-12.5c0-41.8,0.1-83.6-0.1-125.4c0-4.3,1.2-5.6,5.3-5.1c4.3,0.5,9.8-1.8,12.5,0.9c2.7,2.7,0.7,8.2,0.8,12.5
	C1507.7,270.3,1507.6,273.7,1507.6,277.1z"/>
<path class="st0" d="M1242.3,399.6c-10.2-0.3-23.3-5.9-34-17c-2.2-2.2-2.5-3.8-0.1-6.1c3-2.9,5.1-7.8,8.5-8.8c3.8-1.1,6,4.5,9.2,6.8
	c9.3,6.6,19.3,9.9,30.5,6.1c9.3-3.2,15.7-9.5,17.1-19.6c1.3-9.4-3.2-16.3-10.8-21.6c-5.5-3.8-11.3-7-17.2-10.1
	c-6.8-3.5-13.4-7.4-19.3-12.3c-13.2-11.1-17.7-28.6-11.2-44.2c6.1-14.8,21.9-24.1,38.7-22.8c14.2,1,25.4,8.1,35.8,17.2
	c1.8,1.6,1.3,2.5-0.1,3.9c-3.1,3-5.6,7.7-9.2,8.8c-3.7,1.1-6.4-4.3-9.8-6.4c-7.3-4.4-14.8-7.7-23.6-6.2c-8.2,1.4-14.1,5.9-16.8,13.9
	c-2.6,7.6,0.2,14.1,5.4,19.6c5.1,5.4,11.6,8.9,18,12.4c6.3,3.4,12.6,6.7,18.5,10.9c17.2,12.1,23.3,28.4,17.5,46.7
	C1283.6,388.5,1267.3,399.7,1242.3,399.6z"/>
<path class="st0" d="M1357.7,332.7c0,19.5-0.1,39,0.1,58.5c0,3.7-0.5,5.7-4.8,5.1c-4.4-0.6-10.1,1.9-12.9-1.1
	c-2.6-2.7-0.8-8.3-0.8-12.6c-0.1-35.7-0.1-71.3,0.1-107c0-4.8-0.7-6.9-6.1-6.4c-5.1,0.6-10.3,0-15.5,0.2c-2.5,0.1-3.4-0.6-3.6-3.3
	c-0.6-12.7-0.7-12.6,12.1-12.7c4.1,0,9.4,1.8,12.1-0.7c2.7-2.6,0.8-7.9,0.8-12c0.1-12.2,0.1-24.3,0-36.5c0-3.1,0.9-4.1,4-3.9
	c4.6,0.3,10.7-1.4,13.5,0.9c3.1,2.5,0.9,8.7,1,13.3c0.2,11.2,0.2,22.3,0,33.5c-0.1,4.2,0.6,5.9,5.3,5.6c6.8-0.5,13.7,0,20.5-0.2
	c2.7-0.1,3.3,0.8,3.4,3.4c0.4,12.6,0.5,12.6-12.2,12.6c-4.2,0-8.3,0.2-12.5-0.1c-3.5-0.3-4.5,0.8-4.5,4.4
	C1357.8,293.4,1357.7,313.1,1357.7,332.7z"/>
<path class="st0" d="M1089.9,333c0-19.7-0.1-39.3,0.1-59c0-3.7-0.9-4.9-4.7-4.7c-5.8,0.3-11.8,0.9-17.5-0.1c-6.3-1.2-1.9-7-2.8-10.6
	c-0.4-1.8-1.8-5.3,2.8-5.2c6,0.2,12-0.2,18,0.1c3.3,0.1,4.2-0.9,4.1-4.2c-0.2-14.8,0.1-29.7-0.2-44.5c-0.1-3.8,1-5,4.7-4.6
	c4.3,0.4,10-1.3,12.5,0.8c3,2.5,0.9,8.4,1,12.9c0.2,11.5,0.3,23-0.1,34.5c-0.1,4.3,1.3,5.3,5.3,5.1c6.8-0.3,13.7,0,20.5-0.1
	c2.6-0.1,3.3,0.8,3.4,3.4c0.5,12.6,0.6,12.6-12.2,12.6c-4,0-8,0.2-12-0.1c-3.9-0.3-5,0.9-5,4.9c0.2,36.2,0.1,72.3,0.1,108.5
	c0,3.2-0.1,6.3,0,9.5c0.2,2.9-0.5,4.4-3.8,4.1c-4.6-0.4-10.5,1.8-13.5-0.9c-2.9-2.6-0.8-8.5-0.9-12.9
	C1089.9,366,1089.9,349.5,1089.9,333z"/>
<path class="st0" d="M1005.2,273.4c4-4.4,7.3-8.4,10.9-11.9c11.7-11.3,26.1-14.3,38.9-8.7c3.2,1.4,4.1,2.8,1.6,5.6
	c-0.8,0.9-1.4,1.9-1.8,3c-2.8,6-5.9,9.2-13.9,6.8c-7.7-2.3-14.8,2.6-20.4,8.3c-8.8,9-12.4,20.3-13.6,32.5
	c-2.7,27.1-1.6,54.2-1.6,81.4c0,4.8-1.1,6.2-6,6c-12.8-0.4-12.8-0.1-12.8-13.1c0-41.5,0.1-82.9-0.1-124.4c0-4.4,1.1-6,5.5-5.4
	c4.2,0.5,9.8-1.8,12.5,0.9c2.6,2.7,0.6,8.2,0.8,12.5C1005.3,268.8,1005.2,270.7,1005.2,273.4z"/>
<path class="st0" d="M2209.9,297.6c0,31.2-0.1,62.3,0.1,93.5c0,4.6-1.3,5.9-5.6,5.3c-2.6-0.3-5.4-0.3-8,0c-4.2,0.5-4.9-1.3-4.9-5.1
	c0.1-62.6,0.1-125.3,0-187.9c0-3.7,0.7-5.5,4.8-5c4.3,0.5,9.9-1.3,12.5,0.9c2.8,2.3,0.9,8.1,0.9,12.4
	C2209.9,240.2,2209.9,268.9,2209.9,297.6z"/>
<path class="st0" d="M1180.9,324.5c0,22.5-0.1,45,0.1,67.4c0,3.5-0.9,4.8-4.4,4.4c-3.1-0.3-6.3-0.3-9.5,0c-3.5,0.3-4.5-1-4.4-4.5
	c0.1-27.5,0.1-54.9,0.1-82.4c0-17.1,0.1-34.3-0.1-51.4c-0.1-3.9,1.1-4.9,4.8-4.6c4.3,0.4,10-1.4,12.5,0.8c3,2.5,0.9,8.4,1,12.8
	C1181,286.2,1180.9,305.4,1180.9,324.5z"/>
<path class="st0" d="M1890.7,518c5-15.3,9.6-29.3,14.2-43.3c1.3-3.9,2.9-7.8,3.8-11.8c0.8-3.4,3.1-2.9,5.4-2.8
	c2.9,0.1,1.8,2.4,1.8,3.7c0.1,20.3,0.2,40.6,0.2,60.9c0,1.9,0.6,3.9-2.7,3.9c-3.3,0-3.3-1.6-3.3-4c0.1-15,0-29.9-0.8-45.1
	c-4.1,12.7-8.2,25.4-12.2,38.1c-0.8,2.5-1.5,5.1-2.3,7.6c-0.6,1.9-1.1,3.5-3.9,3.4c-2.7-0.1-3.3-1.4-3.9-3.4
	c-4.5-14.2-9-28.5-13.6-42.7c-0.2-0.7,0-1.7-1.8-2.1c0,14.7,0,29.3,0,44c0,2,0.7,4.2-3,4.2c-3.7,0-3-2.2-3-4.2
	c0.1-20.1,0.2-40.3,0.4-60.4c0-1.5-1.1-3.9,2.1-4c2.6-0.1,4.2,0.3,5.1,3.3c4.5,14.4,9.2,28.7,13.9,43.1
	C1888.1,509.8,1889.2,513.3,1890.7,518z"/>
<path class="st0" d="M2129.4,503c0-7.5,0-15,0-22.5c0-1.2-0.7-3,1.2-3.3c1.5-0.3,3.6-1,4.5,0.9c0.9,1.9,1.5,1.3,2.9,0.7
	c13.6-6.2,24.6-0.4,25.5,14.3c0.7,10.9,0.1,22,0.2,33c0,2.5-1.2,2.6-3.1,2.6c-2.1,0-3.4-0.2-3.4-2.9c0.1-10.2,0.2-20.3,0-30.5
	c-0.2-9.6-5.2-13.5-14.2-11.6c-4.8,1-7.4,4.2-7.4,9.1c0,10.5,0,21,0,31.5c0,2.3,0.6,4.5-3.3,4.5c-4.1,0-3-2.6-3.1-4.7
	C2129.4,517,2129.4,510,2129.4,503z"/>
<path class="st0" d="M2087.4,484.5c-7.9,0-14.9-0.1-21.9,0.1c-2.9,0.1-3.6-1-3.6-3.7c0.1-2.6,0.4-4,3.5-3.9c8.2,0.2,16.3,0,24.5,0.1
	c1.9,0,4.7-1.1,5.5,1c0.8,2.3,0.9,5.1-0.9,7.6c-3.7,5.1-7.3,10.3-10.9,15.5c-4.5,6.5-9.1,13-14.1,20.2c8.5,0,16.1,0.1,23.7-0.1
	c2.9-0.1,3.7,0.8,3.7,3.7c0,2.8-0.8,3.7-3.6,3.6c-8.7-0.2-17.3,0-26-0.1c-1.9,0-4.6,1.1-5.4-0.8c-0.9-2.3-0.8-5.2,0.9-7.6
	c3.7-5.1,7.2-10.4,10.9-15.6C2078,498.1,2082.5,491.7,2087.4,484.5z"/>
<path class="st0" d="M1156.8,210.2c0-8.5,6.7-15.4,15-15.4c8.3,0,15.1,7.1,15.1,15.4c-0.1,8.1-6.8,14.9-14.9,15.1
	C1163.7,225.5,1156.8,218.6,1156.8,210.2z"/>
<path class="st0" d="M1672.4,496.2c0.3-8.2-0.6-18.2,0.5-28.2c0.9-8.8,6.4-14,13.7-13.4c5,0.5,6.7,3,4.5,6.5c-0.8,1.2-1.3,1.3-2.7,1
	c-5.5-1.2-8.5,0.9-9.2,6.5c-0.2,1.6-0.1,3.3-0.3,5c-0.3,2.7,0.8,3.5,3.4,3.3c2.4-0.2,4.9-0.7,4.8,3.5c0,3.7-1.7,4.2-4.5,3.8
	c-3.4-0.5-3.7,1.2-3.7,4c0.1,11.8,0.1,23.6,0,35.4c0,2.3,1,5-3.3,4.9c-4.1-0.1-3-2.6-3-4.7C1672.4,515.3,1672.4,506.7,1672.4,496.2z
	"/>
<path class="st0" d="M1663.9,521.4c-0.9,2.6,1.9,5.8-1.9,7.4c-5.5,2.3-12.4,0.5-15.2-4c-2-3.1-2.4-6.6-2.4-10.1
	c-0.1-16.1,0-32.3-0.1-48.4c0-2.2,0.1-3.8,3.1-3.7c2.7,0,3.6,1,3.3,3.5c-0.1,1.2,0,2.3,0,3.5c0,7.1,0,7.3,7.2,7.3
	c3,0,3.5,1.2,3.6,3.8c0,2.8-0.8,3.7-3.7,3.7c-7.1,0-7.1,0.2-7.1,7.4c0,7.2,0,14.3,0,21.5c0,8.3,2,9.9,10.4,8.5
	C1661.9,521.7,1662.7,521.6,1663.9,521.4z"/>
<path class="st0" d="M1633.4,487.4c-2.7-3.6-6.2-4.6-10.3-3.7c-4.8,1-7.4,4.1-7.4,9.1c0,10.6,0,21.3,0,31.9c0,2.3,0.2,4-3.2,4
	c-3.4,0-3.2-1.8-3.2-4.1c0-14.6,0-29.3,0.1-43.9c0-1.2-0.7-3,1-3.5c1.5-0.4,3.8-1.1,4.5,0.6c1.2,2.9,2.5,1.2,3.7,0.5
	c3.2-1.8,6.5-2.3,10.1-1.8C1636,477.5,1637.5,480.8,1633.4,487.4z"/>
<path class="st0" d="M1747.1,492c0-10.8,0-21.6,0-32.5c0-2.2-0.5-4.2,3.1-4.2c3.2,0,3.4,1.4,3.4,3.9c-0.1,21.8-0.1,43.6,0,65.4
	c0,2.5-0.2,3.9-3.4,3.9c-3.6,0-3.1-2-3.1-4.2C1747.1,513.7,1747.1,502.8,1747.1,492z"/>
<path class="st0" d="M2114.5,502.9c0,7.5-0.1,15,0.1,22.4c0.1,2.9-1.1,3.2-3.5,3.2c-2.5,0-3-1-3-3.2c0.1-15.1,0.1-30.2,0-45.4
	c0-2.5,1-3.1,3.2-3.1s3.3,0.6,3.3,3.1C2114.4,487.6,2114.5,495.3,2114.5,502.9z"/>
<path class="st0" d="M1770.1,502.9c0-7.5,0.1-15,0-22.4c0-2.5,0.6-3.5,3.3-3.6c2.9,0,3.2,1.3,3.2,3.7c-0.1,15-0.1,29.9,0,44.9
	c0,2.3-0.6,3.2-3.1,3.2c-2.5,0-3.5-0.6-3.4-3.3C1770.2,517.8,1770.1,510.4,1770.1,502.9z"/>
<path class="st0" d="M2114.8,464.6c-0.3,2.1-1.6,3.5-3.9,3.3c-2.4-0.2-3.1-2-3-4.3c0.1-2.4,1.6-3.4,3.5-3.3
	C2113.7,460.4,2114.8,462,2114.8,464.6z"/>
<path class="st0" d="M1773.3,460.2c2.1,0.3,3.4,1.5,3.4,3.9c0,2.4-1.4,3.8-3.7,3.8c-2,0-3.2-1.4-3.3-3.6
	C1769.8,461.9,1770.8,460.5,1773.3,460.2z"/>
<path class="st0" d="M1955.4,272.4c-26-27.8-80.7-33.6-109.5,6.5c0-4.6,0.1-8.6,0-12.5c-0.1-4.1,1.8-9.4-0.7-12
	c-2.5-2.6-7.9-0.3-12-0.9c-4.9-0.7-5.5,1.5-5.5,5.8c0.1,58.6,0.1,117.3,0.1,175.9c0,4.3-1.9,9.8,0.9,12.5c2.7,2.6,8.3,0.3,12.5,0.9
	c4.1,0.5,4.9-1.2,4.8-5c-0.2-23.5-0.1-46.9-0.1-71.4c31.7,37.9,83.1,33.7,109.9,4.9C1983.2,347.6,1982.9,301.6,1955.4,272.4z
	 M1901.1,382.6c-32.4-0.1-56.3-24.7-56.2-57.9c0.1-32.1,24.8-57.1,56.4-57c31.4,0.1,56.7,25.9,56.5,57.7
	C1957.6,356.9,1932,382.7,1901.1,382.6z"/>
<path class="st0" d="M1669.4,326.3c20,0.2,40,0.1,60,0.1c18.2,0,36.3,0,54.5,0c10.5,0,10.3,0,9.2-10.7c-4.7-46.1-48.7-78-99.2-61.5
	c-30.7,10-50.9,44.1-47.9,77.5c2.7,29.8,24.6,62.8,61.4,67.1c31.9,3.7,58.2-5.2,76.5-33c5.6-8.5,5.5-8.5-3.6-13.3
	c-1.3-0.7-2.7-1.3-4-2.1c-2.2-1.5-3.4-0.8-4.7,1.3c-2.4,3.8-5,7.5-7.8,11c-14,17.1-40.6,24.6-62.2,17.5
	c-20.4-6.7-35.1-26.6-36.7-49.1C1664.7,327.2,1665.6,326.3,1669.4,326.3z M1718.8,267.5c27.8-0.1,51,18,54.3,42.9
	c-35.5,0-70.7,0-105.8,0C1670.3,286.6,1693.1,267.6,1718.8,267.5z"/>
<path class="st0" d="M2151.9,254.3c-2.7-2.2-8.6-0.5-13-0.9c-3.5-0.3-4.6,0.8-4.5,4.4c0.3,6.7,0.1,13.5,0.1,21.2
	c-28.5-38.7-79.2-34.3-104.6-11.3c-30.1,27.3-34.8,72.2-10,103.6c12.3,15.6,28,25.5,47.9,27.8c26.5,3,48.6-6,66.7-27.4
	c0,4.8,0,8.1,0,11.4c0,13.2,0,13,13.2,13.2c4.2,0.1,5.2-1.1,5.2-5.2c-0.2-41.3-0.1-82.6-0.1-124
	C2152.8,262.8,2154.8,256.7,2151.9,254.3z M2078.8,382.6c-30.9-0.1-56-25.9-56-57.6c0-32,25.3-57.4,56.8-57.3
	c31.7,0.2,56,25.4,56,58C2135.5,358.2,2111.1,382.7,2078.8,382.6z"/>
<path class="st0" d="M951,254.3c-3.1-2.8-9.2-0.5-14-0.9c-2.6-0.2-3.5,0.7-3.4,3.4c0.2,7,0.1,13.9,0.1,22.1
	c-28.2-39.3-81.2-34.2-106.5-9.6c-29,28.2-32.5,72.7-7,103.5c12.3,14.9,27.8,24.3,47.2,26.4c26.4,2.8,48.3-6.2,66.3-27.5
	c0,4.8-0.1,8.1,0,11.3c0.2,4.3-1.9,9.7,1,12.5c2.6,2.5,8,0.3,12.1,0.8c4.1,0.5,5.3-0.9,5.3-5.1c-0.2-41.2-0.1-82.3-0.1-123.5
	C951.8,263.2,953.9,257,951,254.3z M878.3,382.6c-31,0-56.4-25.7-56.5-57.2c-0.1-32,24.9-57.6,56.4-57.7
	c31.7-0.1,56.3,25.1,56.4,57.5C934.8,357.8,910.5,382.6,878.3,382.6z"/>
<path class="st0" d="M2009.7,478.6c-0.5-1.3-1.1-2.5-2.8-2.2c-1,0.2-2.1,0.1-2.9,0.6c-3.3,2.5-6.3,1.8-9.9,0.2
	c-5.6-2.5-12.3,0-15.8,5.1c-3.8,5.6-4.8,11.9-2.2,18.1c1.8,4.2,2,8.3,1.7,12.6c-0.2,3.1-0.5,6.3-0.6,9.4c-0.1,1.3-1.1,3.3,0.7,3.9
	c1.4,0.5,3.4,0.7,4.8-0.5c3.9-3.5,8.6-3.2,13.2-2.3c4,0.8,6.4,3.3,6.2,7.7c-0.2,5.6-3.2,9.4-8.3,10.3c-7.5,1.3-14-1.4-15.6-7.4
	c-1-3.6-3.1-3.1-5.1-2.7c-2.4,0.6-1,2.7-0.7,4.1c2.3,9.5,11.2,14.1,23,12.1c8.4-1.5,12.9-8,12.3-17.6c-0.5-7.8-6.4-13.2-14.5-13.6
	c-3.7-0.2-7.2,0.6-10.7,1.4c-0.2-7.3-0.3-7.3,6.4-6.9c3.8,0.2,7.2-0.9,10-3.6c5.2-5,6.7-11.3,4.9-17.8c-1.3-4.6-1.1-7.3,4.1-8.1
	C2009.3,481.1,2010.4,480.3,2009.7,478.6z M1989.6,504.3c-4.7-0.1-8.6-4.7-8.7-10.5c-0.1-6.1,3.6-10.6,8.8-10.6
	c5,0,8.6,4.3,8.6,10.2C1998.4,499.5,1994.4,504.4,1989.6,504.3z"/>
<path class="st0" d="M2052,493.5c-2.2-14.9-14.7-21.6-28.5-15.3c-2,0.9-4.6,1.5-2.7,4.9c1.4,2.5,2.2,4,5.4,2
	c2.3-1.5,5.4-1.6,8.2-1.5c6.3,0.3,9.8,3.3,11.2,9.4c0.6,2.4,0.6,3.7-2.7,3.4c-4.6-0.5-9.4-0.1-13.9,1.2c-5.6,1.7-9.9,5.1-10.9,11.2
	c-1,6.9-0.1,13.6,5.9,18c5.1,3.8,11,3.5,16.6,0.7c1.8-0.9,3.2-2.3,5.5-3.9c0.2,1.2,0.5,1.9,0.5,2.7c0,2.7,2,2,3.5,2.2
	c1.9,0.2,2.7-0.6,2.6-2.6C2052.4,515.2,2053.6,504.3,2052,493.5z M2035.1,522.6c-5.5,0.6-9.1-1.7-10.4-6.9
	c-1.5-5.7,0.4-9.2,5.9-11.3c3-1.2,6.2-1.3,9.3-1.3c6.6-0.1,6.6,0,6.6,6.4C2046.4,516.7,2042.1,521.7,2035.1,522.6z"/>
<path class="st0" d="M1960.9,493.3c-2.3-14.8-15.2-21.4-28.7-14.9c-1.8,0.9-4.3,1.4-2.5,4.6c1.3,2.2,1.5,4.1,5.2,2.3
	c9.2-4.4,18-0.5,19.7,8c0.4,2.2,0.4,3.3-2.5,3.1c-4.7-0.4-9.3-0.1-13.9,1.2c-5.6,1.6-10,4.9-11,11c-1.1,6.9-0.2,13.6,5.7,18.1
	c5.1,3.9,10.9,3.6,16.5,0.9c1.9-0.9,3.5-2.4,5.6-3.9c0.8,2.4,0.1,5.4,3.9,4.8c1.6-0.3,2.9-0.2,2.8-2.4
	C1961.4,515.2,1962.6,504.2,1960.9,493.3z M1955.4,508.6c0,7.8-3.7,12.5-10.3,13.9c-5.8,1.2-10-1.3-11.5-6.7
	c-1.6-5.8,0.4-9.5,6.3-11.6c3-1.1,6.2-1,9.3-1.2C1953.9,502.7,1956.9,503.9,1955.4,508.6z"/>
<path class="st0" d="M1534.4,460c-5,0-10,0.2-15-0.1c-2.9-0.1-3.6,0.8-3.6,3.6c0.2,10.3,0.1,20.6,0.1,30.9c0,10.1,0,20.3,0,30.4
	c0,2.1-0.2,3.8,3,3.7c2.7-0.1,3.3-1,3.2-3.5c-0.2-5.3-0.1-10.6,0-16c0-4-1.3-9.2,0.8-11.6c2.4-2.8,7.8-0.9,11.9-0.9
	c11.8-0.1,17.6-5.7,18-17.5C1553.1,467.5,1546,460,1534.4,460z M1546,481.2c-0.7,5.4-3.9,8.4-9.1,8.5c-1.8,0-3.6,0-5.5,0
	c-9.3,0-9.3,0-9.3-9.2c0-0.2,0-0.3,0-0.5c0.4-4.2-2-10.6,1-12.1c4.7-2.4,11-1.3,16.5-0.3C1544.3,468.5,1546.8,474.5,1546,481.2z"/>
<path class="st0" d="M2183.9,502.6c6.2,0.2,12.3,0.1,18.5,0.1c7.9,0,7.9,0,7.3-7.8c-0.6-8.8-5.8-16.3-12.6-18.1
	c-7-1.9-14.5,1.1-18.6,7.5c-6.3,9.6-6.1,27.1,0.4,36.6c6.3,9.1,18.4,11.5,26.1,5.1c4.6-3.8,4.6-5,0.3-9.4c-4.3,4.7-9.6,6.8-15.6,4.7
	c-6-2.1-8-7.5-9.1-13.3c-0.1-0.5-0.1-1-0.3-1.5C2179.3,503.1,2180.9,502.5,2183.9,502.6z M2182.3,490.1c2.4-4.6,7-7.2,11.8-6.6
	c4.6,0.5,8.1,4.1,9.4,9.1c0.6,2.5-0.1,3.3-2.6,3.2c-3-0.1-6,0-8.9,0c-2.2,0-4.3,0-6.5,0C2180.3,495.7,2179.8,494.9,2182.3,490.1z"/>
<path class="st0" d="M1591.1,481.3c-6.8-6.7-16.4-6.6-23.2,0.1c-10.7,10.6-10.6,32.7,0.2,43.2c6.8,6.6,15.9,6.7,22.8,0.2
	c6.2-5.9,8.4-13.3,8.2-21.8C1599.3,494.7,1597.1,487.2,1591.1,481.3z M1588.5,517.4c-5.3,6.9-13.2,6.7-18.3-0.4
	c-5.5-7.6-5.3-21.1,0.4-28.6c5-6.6,12.4-6.7,17.6-0.3c3.4,4.3,4.8,9.3,4.7,15.2C1593.1,508.3,1591.7,513.1,1588.5,517.4z"/>
<path class="st0" d="M1735.1,502.8c0.4-6.8-1.4-12.9-5.2-18.4c-7.6-10.8-20.7-10.8-28.4-0.1c-7.3,10.1-7.4,27-0.1,37.2
	c7.7,10.7,20.7,10.8,28.4,0.1C1733.8,515.9,1735.4,509.6,1735.1,502.8z M1724.7,517.1c-5.4,7.2-13.4,7.1-18.6-0.2
	c-5.4-7.7-5.2-21.2,0.5-28.6c4.9-6.4,12.1-6.6,17.3-0.4c3.7,4.4,5.1,9.6,5,15.6C1729.1,508.2,1727.8,512.9,1724.7,517.1z"/>
<path class="st0" d="M1828.1,503.1c0-8.1-1.7-14.2-5.6-19.2c-7.7-10.1-20.2-10.1-27.8,0c-7.7,10.3-7.7,27.8,0,37.9
	c7.7,10.2,20.1,10.2,27.8,0C1826.6,516.3,1828.4,510,1828.1,503.1z M1817.2,517.7c-5.2,6.4-12.6,6.2-17.7-0.3
	c-5.9-7.5-5.7-21.9,0.3-29.4c4.9-6.1,11.9-6.2,17-0.3c3.3,3.8,5.1,9.1,5.1,15.2C1822.1,508.4,1820.7,513.4,1817.2,517.7z"/>
</svg>
